# xmcd CD database file
#
# Track frame offsets:
#	183
#	13005
#	26918
#	39968
#	53478
#	73268
#	91115
#	107495
#	121968
#	145973
#	159615
#	172418
#
# Disc length: 2633 seconds
#
# Revision: 11
# Processed by: cddbd v1.5.2PL0 Copyright (c) Steve Scherf et al.
# Submitted via: CDex 1.51
#
DISCID=a00a470c
DTITLE=Honza Vycital - Kdyz jsme opustili Prahu
DYEAR=1992
DGENRE=Country
TTITLE0=Kdyz jsme opustili Prahu
TTITLE1=Jen vzpominky posmistrovic kluka
TTITLE2=Tahnu se jak testo strudlu
TTITLE3=Kdyz se cas naplnil
TTITLE4=Mesto se straslivou zizni
TTITLE5=Kamaradi 2
TTITLE6=To je ta hranice
TTITLE7=Mr. Cas
TTITLE8=Balada o Krcme rybarske
TTITLE9=Mam ji jak z praku
TTITLE10=Morska panna
TTITLE11=Johnsonuv protijed
EXTD=YEAR: 1992
EXTT0=
EXTT1=
EXTT2=
EXTT3=
EXTT4=
EXTT5=
EXTT6=
EXTT7=
EXTT8=
EXTT9=
EXTT10=
EXTT11=
PLAYORDER=
